<?xml version="1.0" standalone="no"?><!DOCTYPE svg PUBLIC "-//W3C//DTD SVG 1.1//EN" "http://www.w3.org/Graphics/SVG/1.1/DTD/svg11.dtd"><svg t="1605852652942" class="icon" viewBox="0 0 1024 1024" version="1.1" xmlns="http://www.w3.org/2000/svg" p-id="5166" xmlns:xlink="http://www.w3.org/1999/xlink" width="16" height="16"><defs><style type="text/css"></style></defs><path d="M958.196793 255.523616c0.383279 0 0-167.36504 0-191.639358H63.879786v638.797862h127.759573c-1.916394 0 0 39.605467 0 63.879786H63.879786a82.085525 82.085525 0 0 1-63.879786-61.835633V43.953765A44.71585 44.71585 0 0 1 45.354648 0.004472H958.196793c61.963393 0 63.879786 0 63.879787 63.879786v191.639358h-63.879787zM172.475423 958.201265h102.654816c24.721477 0 44.140932-0.383279 44.140933 0 0 17.630821-0.894317 63.879786 0 63.879786H172.475423a33.792407 33.792407 0 1 1 0-63.879786z m127.759572-242.743188h-3.960546a36.794757 36.794757 0 0 1-32.578691-34.558964 456.101674 456.101674 0 0 1-8.048854-72.822956 448.30834 448.30834 0 0 1 8.048854-72.886836 36.539238 36.539238 0 0 1 33.217488-34.495085H300.234995a98.374871 98.374871 0 0 0 99.652467-96.713996 106.934762 106.934762 0 0 0-8.687651-36.986397 42.799457 42.799457 0 0 1 15.267269-52.764703l0.958197-0.638798 99.205308-52.892463 1.022076-0.447158a51.103829 51.103829 0 0 1 54.233939 10.923443 93.903286 93.903286 0 0 0 157.208154 0.830437 51.103829 51.103829 0 0 1 54.297818-10.540164l0.958197 0.447158 95.819679 51.678747 0.958197 0.638798a42.927216 42.927216 0 0 1 15.139509 52.828583 105.976565 105.976565 0 0 0-8.687651 36.986396 98.310991 98.310991 0 0 0 99.652467 96.650117h3.321749a36.666997 36.666997 0 0 1 33.217488 34.558964 456.101674 456.101674 0 0 1 8.048853 72.822957 448.30834 448.30834 0 0 1-8.048853 72.886836 36.666997 36.666997 0 0 1-33.217488 34.558964h-3.19399a98.374871 98.374871 0 0 0-99.652466 96.650117 106.934762 106.934762 0 0 0 8.687651 36.986396 42.927216 42.927216 0 0 1-15.203389 52.764703l-0.958197 0.702678-97.416674 52.253665-1.022077 0.383279a47.462681 47.462681 0 0 1-18.141859 3.449508 50.081752 50.081752 0 0 1-36.219839-14.94787 93.967166 93.967166 0 0 0-160.657662-0.830437 50.592791 50.592791 0 0 1-54.425578 11.115083l-0.958197-0.447159-94.031045-51.103829-0.894317-0.702677a42.863337 42.863337 0 0 1-15.13951-52.828583 107.062522 107.062522 0 0 0 8.623772-36.986397A98.247111 98.247111 0 0 0 300.234995 714.947039z m159.699466 80.80793a136.063945 136.063945 0 0 1-11.306722 49.953993l80.935689 43.885413a6.771257 6.771257 0 0 0 2.682951-0.638798 234.311056 234.311056 0 0 1 31.045576-26.382352 110.384271 110.384271 0 0 1 146.923508 0.511039 229.520072 229.520072 0 0 1 31.109456 26.82951 5.87694 5.87694 0 0 0 2.746831 0.702677l84.001919-45.035249a134.59471 134.59471 0 0 1-11.306722-49.826233 131.52848 131.52848 0 0 1 126.481976-129.356567 269.189419 269.189419 0 0 0 0-117.730446 131.4646 131.4646 0 0 1-126.481976-129.292688 135.616786 135.616786 0 0 1 11.306722-49.890113l-82.532684-44.71585h0.574918a6.0047 6.0047 0 0 0-3.130109 0.766557 228.497995 228.497995 0 0 1-30.534538 24.849237 110.767549 110.767549 0 0 1-143.665639-0.511038 238.207723 238.207723 0 0 1-30.726178-25.551914 6.387979 6.387979 0 0 0-3.130109-0.766558l-85.535034 45.546288a135.808426 135.808426 0 0 1 11.242842 49.890113 131.40072 131.40072 0 0 1-126.481976 129.292687 389.027898 389.027898 0 0 0-6.387979 58.897163 378.487733 378.487733 0 0 0 6.387979 58.833283 131.4646 131.4646 0 0 1 126.162578 129.228808z m176.947008-317.482538A128.781649 128.781649 0 1 1 504.650311 606.862441a130.889682 130.889682 0 0 1 132.614436-128.59001z m0 207.098267a78.380498 78.380498 0 1 0-80.74405-78.316618 79.658093 79.658093 0 0 0 81.127328 77.80558z" p-id="5167"></path></svg>
