<?xml version="1.0" standalone="no"?><!DOCTYPE svg PUBLIC "-//W3C//DTD SVG 1.1//EN" "http://www.w3.org/Graphics/SVG/1.1/DTD/svg11.dtd"><svg t="1650535822349" class="icon" viewBox="0 0 1024 1024" version="1.1" xmlns="http://www.w3.org/2000/svg" p-id="4158" xmlns:xlink="http://www.w3.org/1999/xlink" width="200" height="200"><defs><style type="text/css"></style></defs><path d="M1017.6 595.2c19.2-134.4-6.4-256-89.6-364.8C832 89.6 588.8-19.2 480 25.6c6.4 25.6 6.4 44.8 12.8 70.4 262.4 0 428.8 185.6 448 371.2 19.2 179.2-89.6 371.2-249.6 428.8v-179.2c0-25.6-12.8-38.4-32-38.4-38.4 0-51.2 12.8-38.4 57.6 12.8 70.4 6.4 140.8 0 211.2 0 38.4 19.2 32 64 32h160c83.2 0 96 12.8 96-32 0-25.6-6.4-38.4-38.4-38.4H832c96-76.8 166.4-179.2 185.6-313.6zM76.8 512c0-153.6 115.2-345.6 224-364.8v153.6c0 32 6.4 38.4 38.4 38.4s38.4-6.4 38.4-38.4V64c0-32-6.4-38.4-38.4-38.4H102.4C70.4 25.6 64 32 64 64s0 38.4 38.4 38.4h102.4c-230.4 185.6-243.2 467.2-128 659.2 108.8 185.6 326.4 256 460.8 236.8-6.4-25.6-6.4-44.8-12.8-70.4-275.2 6.4-448-217.6-448-416z" p-id="4159"></path></svg>