<?xml version="1.0" standalone="no"?><!DOCTYPE svg PUBLIC "-//W3C//DTD SVG 1.1//EN" "http://www.w3.org/Graphics/SVG/1.1/DTD/svg11.dtd"><svg t="1605757067339" class="icon" viewBox="0 0 1024 1024" version="1.1" xmlns="http://www.w3.org/2000/svg" p-id="5620" xmlns:xlink="http://www.w3.org/1999/xlink" width="16" height="16"><defs><style type="text/css"></style></defs><path d="M864 1024H159.936A128 128 0 0 1 32 896V256a128 128 0 0 1 127.936-128H288 224v256h576V128h-64 128a128 128 0 0 1 127.936 128v640A128 128 0 0 1 864 1024z m-192-448H544V448c-28.032 0-64 0.192-64 0v128H416c-28.032 0-64 2.176-64 0 0-27.776-2.048 64 0 64h128v128h64c1.024 0 0-36.224 0-64v-64c27.904 0 126.912-0.192 127.808 0 0.128 5.888 0.192 7.552 0.192 0h-0.192c-0.192-15.744-0.512-64 0.192-64z m96 256h-512a32.064 32.064 0 0 0 0 64h512a32 32 0 0 0 0-64zM288 320V64h64c0-38.08-1.088-64 192-64 82.048 0 128 25.92 128 64h64v256H288z m384-192H608c0-35.328-14.912-64-64-64-127.104 0-128 28.672-128 64H352v128h320V128z" p-id="5621"></path></svg>
