<svg xmlns="http://www.w3.org/2000/svg" width="16" height="16" viewBox="0 0 16 16">
  <defs>
    <style>
      .cls-1 {
        fill: none;
      }
    </style>
  </defs>
  <g id="组_82" data-name="组 82" transform="translate(-980 -56)">
    <rect id="矩形_578" data-name="矩形 578" class="cls-1" width="16" height="16" transform="translate(980 56)"/>
    <path id="路径_442" data-name="路径 442" class="cls-2" d="M741.358,70.315v-8a.751.751,0,0,0-.75-.75h-10.5a.752.752,0,0,0-.75.75v8a.751.751,0,0,0,.75.75h1.75v1.5a.5.5,0,0,0,.813.391l2.363-1.891h5.574A.75.75,0,0,0,741.358,70.315Zm-9-3a1,1,0,1,1,1-1A1,1,0,0,1,732.359,67.315Zm3,0a1,1,0,1,1,1-1A1,1,0,0,1,735.359,67.315Zm3,0a1,1,0,1,1,1-1A1,1,0,0,1,738.359,67.315Zm6-3v7.5a.75.75,0,0,1-.75.75h-1.75v1.5a.5.5,0,0,1-.812.391l-2.363-1.891h-2.825v-1h3a.5.5,0,0,1,.313.11l1.687,1.35v-.96a.5.5,0,0,1,.5-.5h2v-7h-1.25v-1h1.5A.751.751,0,0,1,744.358,64.315Z" transform="translate(251.642 -3.565)"/>
  </g>
</svg>
