<?xml version="1.0" standalone="no"?><!DOCTYPE svg PUBLIC "-//W3C//DTD SVG 1.1//EN" "http://www.w3.org/Graphics/SVG/1.1/DTD/svg11.dtd"><svg t="1605943302283" class="icon" viewBox="0 0 1024 1024" version="1.1" xmlns="http://www.w3.org/2000/svg" p-id="6282" xmlns:xlink="http://www.w3.org/1999/xlink" width="16" height="16"><defs><style type="text/css"></style></defs><path d="M892.888615 1023.960615H131.072C85.622154 1023.960615 39.384615 977.762462 39.384615 932.273231V472.615385c0-45.449846 33.319385-78.769231 78.769231-78.769231h118.153846V78.769231c0-36.785231 41.984-78.769231 78.769231-78.769231l372.657231-0.039385C724.519385-0.039385 787.692308 41.984 787.692308 78.769231v316.809846h105.196307c45.489231 0 91.726769 46.237538 91.72677 91.726769v444.967385c0 45.489231-46.237538 91.687385-91.72677 91.687384zM236.307692 472.615385H157.538462c-28.632615 0-39.384615 10.752-39.384616 39.384615v393.846154c0 28.593231 10.752 39.384615 39.384616 39.384615h78.76923V472.615385z m236.307693 472.615384h78.76923v-78.769231h-78.76923v78.769231z m236.307692-827.076923c0-19.928615-19.456-39.384615-39.384615-39.384615H354.461538c-19.928615 0-39.384615 19.456-39.384615 39.384615v827.076923h78.769231v-118.153846c0-28.711385 10.673231-39.384615 39.384615-39.384615h157.538462c28.711385 0 39.384615 10.673231 39.384615 39.384615v118.153846h78.769231V118.153846z m196.923077 393.846154c0-28.632615-10.752-39.384615-39.384616-39.384615h-78.76923v472.615384h78.76923c28.632615 0 39.384615-10.791385 39.384616-39.384615V512z m-275.692308 39.384615H393.846154v-39.384615c0-12.642462 1.299692-39.384615 0-39.384615h236.307692c1.181538 0 0 26.742154 0 39.384615 0 12.681846-0.078769 39.384615 0 39.384615z m-78.769231-236.307692v78.769231c0 1.181538-26.742154 0-39.384615 0-12.681846 0-39.384615-1.299692-39.384615 0V315.076923H393.846154V275.692308c0-12.642462 2.520615-39.384615 0-39.384616h78.769231V157.538462c0-1.181538 26.702769 0 39.384615 0 12.642462 0 39.384615 1.299692 39.384615 0v78.76923h78.769231c-1.299692 0 0 26.742154 0 39.384616 0 12.681846-0.078769 39.384615 0 39.384615h-78.769231z m78.769231 315.076923c-2.520615 0 0 26.742154 0 39.384616 0 12.681846-2.520615 39.384615 0 39.384615H393.846154c2.520615 0 0-26.702769 0-39.384615v-39.384616h236.307692z" p-id="6283"></path></svg>
