<?xml version="1.0" standalone="no"?><!DOCTYPE svg PUBLIC "-//W3C//DTD SVG 1.1//EN" "http://www.w3.org/Graphics/SVG/1.1/DTD/svg11.dtd"><svg t="1650589339678" class="icon" viewBox="0 0 1024 1024" version="1.1" xmlns="http://www.w3.org/2000/svg" p-id="11198" xmlns:xlink="http://www.w3.org/1999/xlink" width="200" height="200"><defs><style type="text/css"></style></defs><path d="M116.96 928l-22.624-22.624L899.84 94.912l22.624 22.624L116.96 928z m86.336-442.976L474.88 213.44l67.872 67.904-271.52 271.52-67.904-67.872z m45.28 0l22.624 22.624 226.24-226.272-22.592-22.624-226.272 226.24zM67.52 666.016l113.12-113.12 22.624 22.624-113.12 113.152-22.624-22.656zM542.72 190.848l113.152-113.12 22.624 22.624-113.152 113.12-22.624-22.624zM833.792 896a344.032 344.032 0 0 0-13.248-67.424l30.56-9.408c7.424 24.096 12.352 49.696 14.848 76.832H928v32h-128v-32h33.792zM352 928H224v-32h128v32z m192 0h-128v-32h128v32z m192 0h-128v-32h128v32z m-184.352-352c33.92 8.32 65.12 18.496 93.664 30.496l-12.416 29.504A596.384 596.384 0 0 0 544 607.04l7.648-31.072zM928 672.224v96.16h-287.936v-96.16H928z m-30.624 32.448H672v31.84h225.376v-31.84z" p-id="11199"></path></svg>