<?xml version="1.0" standalone="no"?><!DOCTYPE svg PUBLIC "-//W3C//DTD SVG 1.1//EN" "http://www.w3.org/Graphics/SVG/1.1/DTD/svg11.dtd"><svg class="icon" width="200px" height="200.00px" viewBox="0 0 1024 1024" version="1.1" xmlns="http://www.w3.org/2000/svg"><path fill="#333333" d="M469.333333 85.333333h85.333334v853.333334h-85.333334z m484.266667 662.4a42.666667 42.666667 0 0 1-36.266667 20.245334H682.666667a42.666667 42.666667 0 0 1-42.666667-42.666667v-469.333333a42.666667 42.666667 0 0 1 80.832-19.093334l234.666667 469.333334a42.666667 42.666667 0 0 1-1.898667 41.514666z m-105.322667-65.088L725.333333 436.714667V682.666667zM384 256v469.333333a42.666667 42.666667 0 0 1-42.666667 42.666667H106.666667a42.666667 42.666667 0 0 1-38.165334-61.76l234.666667-469.333333A42.666667 42.666667 0 0 1 384 256z m-85.333333 180.714667L175.701333 682.666667H298.666667z" /></svg>