<?xml version="1.0" standalone="no"?><!DOCTYPE svg PUBLIC "-//W3C//DTD SVG 1.1//EN" "http://www.w3.org/Graphics/SVG/1.1/DTD/svg11.dtd"><svg class="icon" width="200px" height="200.00px" viewBox="0 0 1024 1024" version="1.1" xmlns="http://www.w3.org/2000/svg"><path fill="#333333" d="M938.666667 469.333333v85.333334H85.333333v-85.333334z m-129.152 203.52a42.666667 42.666667 0 0 1-22.421334 47.978667l-469.333333 234.666667A42.666667 42.666667 0 0 1 256 917.333333V682.666667a42.666667 42.666667 0 0 1 42.666667-42.666667h469.333333a42.666667 42.666667 0 0 1 41.514667 32.853333zM587.264 725.333333H341.333333v122.944zM256 341.333333V106.666667a42.666667 42.666667 0 0 1 61.76-38.165334l469.333333 234.666667A42.666667 42.666667 0 0 1 768 384H298.666667a42.666667 42.666667 0 0 1-42.666667-42.666667z m85.333333-42.666666h245.930667L341.333333 175.701333z" /></svg>