<?xml version="1.0" standalone="no"?><!DOCTYPE svg PUBLIC "-//W3C//DTD SVG 1.1//EN" "http://www.w3.org/Graphics/SVG/1.1/DTD/svg11.dtd"><svg t="1650511454616" class="icon" viewBox="0 0 1024 1024" version="1.1" xmlns="http://www.w3.org/2000/svg" p-id="3790" xmlns:xlink="http://www.w3.org/1999/xlink" width="200" height="200"><defs><style type="text/css"></style></defs><path d="M641.408 160a334.496 334.496 0 0 0-197.28-64c-185.6 0-336 150.432-336 336s150.4 336 336 336c169.28 0 309.312-125.184 332.576-288h-32.352a304 304 0 1 1-300.224-352c52.096 0 96 8.896 138.88 32h58.4z m38.496 513.92a48 48 0 0 0 0 67.904l158.4 158.4a48 48 0 0 0 67.872-67.904l-158.4-158.4a48 48 0 0 0-67.872 0zM764.128 208h-112v32h112V352h32V240h112v-32h-112V96h-32v112z m-112 192v32h256v-32h-256z m-173.536-173.152l22.752-27.968a240 240 0 0 0-273.792 336.672l22.72-27.968a208 208 0 0 1 228.32-280.736z" p-id="3791"></path></svg>