<?xml version="1.0" standalone="no"?><!DOCTYPE svg PUBLIC "-//W3C//DTD SVG 1.1//EN" "http://www.w3.org/Graphics/SVG/1.1/DTD/svg11.dtd"><svg t="1650511305897" class="icon" viewBox="0 0 1024 1024" version="1.1" xmlns="http://www.w3.org/2000/svg" p-id="3069" xmlns:xlink="http://www.w3.org/1999/xlink" width="200" height="200"><defs><style type="text/css"></style></defs><path d="M400.5376 350.08l-3.328 0.2048a33.5872 33.5872 0 0 0-27.52 20.864l-40.7296 101.248H142.6688a33.5872 33.5872 0 0 0 0 67.1744h209.024l3.4048-0.1536c12.3136-1.2544 23.0656-9.216 27.776-20.8896l18.8672-46.9504 20.1728 47.5136 1.4336 2.9952c5.8624 10.6752 17.1008 17.4592 29.44 17.4592h41.6l48.2816 38.0928c5.9136 4.6848 13.2608 7.2192 20.8128 7.2192l3.3536-0.1536a33.6128 33.6128 0 0 0 27.648-20.6336l27.9552-67.6608 22.016 29.5936c6.3232 8.4992 16.3072 13.5424 26.9312 13.568h144.2048c18.5344 0 33.5616-15.0528 33.5616-33.5872l-0.1536-3.4304a33.5872 33.5872 0 0 0-33.408-30.1568l-127.36-0.0256-47.2576-63.488a33.5872 33.5872 0 0 0-31.104-13.2608l-3.5328 0.64c-10.4448 2.4576-19.2 9.8048-23.3472 19.8656l-33.5872 81.2544-22.4768-17.7664-3.072-2.1504a33.5872 33.5872 0 0 0-17.7664-5.0688h-31.0784l-43.2128-101.8624a33.2032 33.2032 0 0 0-27.904-20.352l-3.3536-0.1024z" p-id="3070"></path><path d="M207.7184 241.5616c83.9168-83.9168 215.296-92.16 308.5824-23.7824l2.5088 1.8944a238.0288 238.0288 0 0 1 300.9792 12.3136l5.632 5.1456 4.864 4.7616 4.4544 4.608c84.7616 89.7024 86.4512 229.1968 4.8384 321.1776l-5.12 5.5552-4.0192 4.1728-252.7744 252.7488a83.2 83.2 0 0 1-113.9712 3.4816l-3.6864-3.4816-152.3456-152.32a32 32 0 0 1 42.6496-47.616l2.6112 2.3296 152.3456 152.3712a19.2 19.2 0 0 0 24.9856 1.8432l2.176-1.8432 252.3904-252.416 3.4048-3.5072c61.5936-65.2032 63.1552-166.4512 4.9152-233.1648l-4.608-5.0688-3.5072-3.6352-3.8912-3.7888c-64.384-60.8512-164.096-63.232-230.912-6.912l-5.1968 4.5312-4.2752 4.0448a32 32 0 0 1-41.2672 2.1504l-2.7392-2.3552-1.5872-1.5104A173.824 173.824 0 0 0 205.824 373.76a32 32 0 1 1-62.6176-13.1584 236.8 236.8 0 0 1 64.5376-119.04z" p-id="3071"></path></svg>