<?xml version="1.0" standalone="no"?><!DOCTYPE svg PUBLIC "-//W3C//DTD SVG 1.1//EN" "http://www.w3.org/Graphics/SVG/1.1/DTD/svg11.dtd"><svg t="1606355888642" class="icon" viewBox="0 0 1024 1024" version="1.1" xmlns="http://www.w3.org/2000/svg" p-id="4852" xmlns:xlink="http://www.w3.org/1999/xlink" width="16" height="16"><defs><style type="text/css"></style></defs><path d="M460.466162 767.954721l-22.00005 25.581453C191.349272 501.907605 330.000749 277.507095 597.071123 161.571948L523.908167 36.529804a23.688426 23.688426 0 0 1 27.11634-35.404732l374.00085 59.962927a25.581453 25.581453 0 0 1 17.907017 30.697744L808.373929 441.381886a22.307027 22.307027 0 0 1-11.25584 14.837243 26.911689 26.911689 0 0 1-9.209323 3.120937 25.581453 25.581453 0 0 1-24.558195-12.841889l-71.62807-122.483999C392.419496 452.586563 362.233381 572.512416 460.466162 767.801232z m0 0l405.210223 255.814534H157.070124A157.684079 157.684079 0 0 1 0 865.880525V158.6045A157.684079 157.684079 0 0 1 157.070124 0.715769H306.977441v51.162907H153.488721a119.823528 119.823528 0 0 0-102.325814 102.325814v716.280696a124.888656 124.888656 0 0 0 102.325814 102.325814h716.280696a124.888656 124.888656 0 0 0 102.325814-102.325814v-460.466162h51.162907v460.466162a154.767793 154.767793 0 0 1-157.581753 153.488721z m4.093033 0" p-id="4853"></path></svg>
