<?xml version="1.0" standalone="no"?><!DOCTYPE svg PUBLIC "-//W3C//DTD SVG 1.1//EN" "http://www.w3.org/Graphics/SVG/1.1/DTD/svg11.dtd"><svg t="1605757045953" class="icon" viewBox="0 0 1024 1024" version="1.1" xmlns="http://www.w3.org/2000/svg" p-id="5434" xmlns:xlink="http://www.w3.org/1999/xlink" width="16" height="16"><defs><style type="text/css"></style></defs><path d="M895.848045 895.968008h-63.984004v63.984004c0 27.769058 1.023744 63.984004 0 63.984004h-63.984004v-127.968008H639.912029c-2.047488 0 0-91.753062 0-63.984004 0 2.175456 35.95901 0 63.984004 0h63.984004v-127.968008c0 0.191952 35.95901 0 63.984004 0v127.968008h127.968008c-1.023744 0 0 91.753062 0 63.984004 0-0.191952-35.95901 0-63.984004 0z m-191.952012-127.968008c-90.985254 0-127.968008 13.372657-127.968008 127.968008 0 55.602099 7.998 63.984004 63.984004 63.984004H128.039997c-28.024994 0-63.984004-8.893777-63.984004-36.662834V51.059235C64.055993 23.226193 86.70633 0.703824 114.731324 0.703824h118.306424v-0.575856L383.976013 0.191952v383.904024h447.888028v255.936016c-117.986503 0-127.968008 10.429393-127.968008 127.968008zM511.944021 320.111972c-28.024994 0-63.984004 0.831792-63.984004 0V0.191952l383.904024 319.92002H511.944021z" p-id="5435"></path></svg>
