<?xml version="1.0" standalone="no"?><!DOCTYPE svg PUBLIC "-//W3C//DTD SVG 1.1//EN" "http://www.w3.org/Graphics/SVG/1.1/DTD/svg11.dtd"><svg t="1606355833310" class="icon" viewBox="0 0 1024 1024" version="1.1" xmlns="http://www.w3.org/2000/svg" p-id="4666" xmlns:xlink="http://www.w3.org/1999/xlink" width="16" height="16"><defs><style type="text/css"></style></defs><path d="M820.67232 820.672a33.28 33.28 0 0 1-47.104 0l-170.368-170.368A253.76 253.76 0 0 1 448.00032 704a256 256 0 1 1 256-256c0 58.624-20.544 112.064-53.696 155.2l170.368 170.368a33.28 33.28 0 0 1 0 47.104zM448.00032 256a192 192 0 1 0 0 384 192 192 0 0 0 0-384z m512 576c-1.024 0 0-40.384 0-64V192c0-58.752-69.504-128-128-128H192.00032c-58.496 0-128 69.504-128 128v640c0 58.496 68.736 128 128 128h640c23.488 0 64-0.64 64 0 0.128 23.36 0 64 0 64H192.70432C86.46432 1024 0.00032 937.984 0.00032 832.448V192c0-105.664 86.528-192 192-192h640.384A191.552 191.552 0 0 1 1024.00032 192v640h-64z" p-id="4667"></path></svg>
