<?xml version="1.0" standalone="no"?><!DOCTYPE svg PUBLIC "-//W3C//DTD SVG 1.1//EN" "http://www.w3.org/Graphics/SVG/1.1/DTD/svg11.dtd"><svg class="icon" width="200px" height="200.00px" viewBox="0 0 1024 1024" version="1.1" xmlns="http://www.w3.org/2000/svg"><path d="M341.333333 896H106.666667a42.666667 42.666667 0 0 1-38.165334-61.76l234.666667-469.333333A42.666667 42.666667 0 0 1 384 384v469.333333a42.666667 42.666667 0 0 1-42.666667 42.666667z m-165.632-85.333333H298.666667V564.714667z" fill="#B3C0CE" opacity=".3" /><path d="M957.76 815.168l-469.333333-234.666667A42.666667 42.666667 0 0 0 426.666667 618.666667v234.666666a42.666667 42.666667 0 0 0 42.666666 42.666667h469.333334a42.666667 42.666667 0 0 0 19.093333-80.832zM512 810.666667v-122.965334L757.930667 810.666667z m-14.933333-597.333334a333.589333 333.589333 0 0 0-273.066667 147.2l-72.810667-44.522666A420.074667 420.074667 0 0 1 497.066667 128c151.210667 0 262.4 81.578667 330.666666 152.768V170.666667h85.333334v213.333333a42.666667 42.666667 0 0 1-42.666667 42.666667h-213.333333v-85.333334h109.824c-57.002667-59.370667-148.928-128-269.824-128z" fill="#B3C0CE" /></svg>