<?xml version="1.0" standalone="no"?><!DOCTYPE svg PUBLIC "-//W3C//DTD SVG 1.1//EN" "http://www.w3.org/Graphics/SVG/1.1/DTD/svg11.dtd"><svg t="1606294631177" class="icon" viewBox="0 0 1024 1024" version="1.1" xmlns="http://www.w3.org/2000/svg" p-id="4580" xmlns:xlink="http://www.w3.org/1999/xlink" width="16" height="16"><defs><style type="text/css"></style></defs><path d="M1011.097199 1021.017186A710.847156 710.847156 0 0 1 937.592143 1022.67904c-99.114644-194.735134-269.135034-213.058133-426.116266-213.058134s-346.475136 61.190296-426.116266 213.058134a376.43111 376.43111 0 0 1-58.846657-1.661854 55.395115 55.395115 0 0 1-9.800674-2.428863 23.180725 23.180725 0 0 1-14.743623-31.489992c58.889268-147.862344 196.269152-239.94607 387.765803-264.192085A310.809205 310.809205 0 0 1 170.582864 426.116266a24.88519 24.88519 0 0 1 22.711997-27.995838C208.038484 398.120428 255.806117 411.585702 255.806117 426.116266c0 147.862344 106.017727 213.058133 255.66976 213.058134s255.66976-65.195789 255.66976-213.058134a62.426033 62.426033 0 0 1 42.611627-42.611626 59.99717 59.99717 0 0 1 44.358703 38.861803 317.073114 317.073114 0 0 1-220.813449 300.539803c188.897341 21.817153 326.277225 113.900878 387.765802 264.192085a25.566976 25.566976 0 0 1-9.971121 33.918855zM511.475877 426.116266h-42.611627V340.893013H383.640997V298.281387c0-14.530565 0.596563-42.611627 0-42.611627h85.223253V170.446507a390.109442 390.109442 0 0 0 42.611627 0c14.701011 0 42.611627-0.553951 42.611627 0v85.223253h85.223253c0.724398 0 0 28.081062 0 42.611627s-1.278349 42.611627 0 42.611626h-85.223253v85.223253c0 0.553951-27.910615 0-42.611627 0z m298.281387-85.223253h-42.611627V170.446507c0-41.205443-3.366319-28.081062-42.611627-42.611627a602.826682 602.826682 0 0 0-213.058133-42.611627C359.394981 85.223253 255.465224 131.24381 255.806117 170.446507v170.446506H213.19449c-14.701011 0-42.18551 0.25567-43.037742 0C170.582864 340.893013 170.582864 170.446507 170.582864 170.446507c0-116.329741 161.924181-170.446507 340.893013-170.446507 176.625192 0 340.893013 54.116766 340.893013 170.446507v170.446506c-0.681786 0.213058-27.910615 0-42.611626 0z" p-id="4581"></path></svg>
