<?xml version="1.0" standalone="no"?><!DOCTYPE svg PUBLIC "-//W3C//DTD SVG 1.1//EN" "http://www.w3.org/Graphics/SVG/1.1/DTD/svg11.dtd"><svg t="1606294674725" class="icon" viewBox="0 0 1166 1024" version="1.1" xmlns="http://www.w3.org/2000/svg" p-id="4766" xmlns:xlink="http://www.w3.org/1999/xlink" width="18.21875" height="16"><defs><style type="text/css"></style></defs><path d="M1165.078214 465.455053h-46.545413a304.686268 304.686268 0 0 0 0-46.545412V372.364229c1.582544-189.439828-137.588239-370.268754-325.817885-372.363298a369.012028 369.012028 0 0 0-228.07252 78.242838A330.100064 330.100064 0 0 0 350.952408 0.000931 362.728398 362.728398 0 0 0 1.442908 357.84206a425.518159 425.518159 0 0 0 0 51.199954 277.084839 277.084839 0 0 0 46.545412 149.503864l-11.496717 24.808704a35.188332 35.188332 0 0 0-35.048695 35.281423c0 19.502528-0.465454 32.581789 0 33.000697h93.090824c109.055901 155.322041 239.476146 295.191004 412.857807 370.780754 2.23418 0.930908 100.863908 0 101.143181 0 137.355511-84.433378 243.432506-123.857342 370.361845-324.235342 0.60509-0.930908-1.349817-45.195595 0-46.545412 0 0-37.23633-0.884363-46.545413 0s-45.75414-1.163635-46.545412 0a873.471206 873.471206 0 0 1-325.817885 279.272474 956.089313 956.089313 0 0 1-325.817886-279.272474c11.822535 0-6.376721 10.007264 0 0l139.636237-93.090824 102.679179 188.60201 1.303272 2.23418a0.418909 0.418909 0 0 0 0 0.279272l1.256726 1.954908 0.418908 0.558545 1.11709 1.489453 0.558545 0.60509 1.11709 1.303272a7.726538 7.726538 0 0 0 0.651636 0.60509c0.372363 0.465454 0.744727 0.744727 1.163635 1.210181s0.465454 0.418909 0.698181 0.558545l1.210181 1.070544c0.465454 0.279272 0.512 0.418909 0.744727 0.558545l1.303271 0.930908c0.279272 0 0.512 0.418909 0.791272 0.558545a5.306177 5.306177 0 0 0 1.442908 0.744727l0.744727 0.465454 1.629089 0.884363a1.256726 1.256726 0 0 1 0.558545 0.279272l2.047998 0.884363h0.279273l2.420361 0.884363c0.837817 0 1.675635 0.465454 2.559998 0.60509h0.232727l2.23418 0.465454h0.60509a13.172352 13.172352 0 0 0 1.908362 0 1.768726 1.768726 0 0 0 0.837817 0h4.607996a34.909059 34.909059 0 0 0 30.068336-26.06543l67.258121-280.249927 58.13522 77.637747a4.375269 4.375269 0 0 0 0.558545 1.023999 46.917776 46.917776 0 0 0 42.495961 23.551979 102.865361 102.865361 0 0 0 50.594863-51.199954c0.418909-0.465454-0.279272 0.512 0 0l23.691615-57.064675 33.093788 101.515544a21.271253 21.271253 0 0 0 1.908362 2.653089l0.651636 0.465454 2.001453 2.234179s0.325818 0.465454 0.511999 0.605091 63.255215-3.630542 63.906851-3.025452c0.698181 0.60509-0.791272-0.465454 0 0h-46.545412 46.545412s3.025452-1.303272 0 0c-0.837817 0-0.977454-0.279272 0 0 0.930908 0.279272 24.85525-4.282178 0 0h46.545412c0.558545-0.698181 0-0.930908 0 0s46.079958 0.372363 46.545413 0h139.636236a39.144692 39.144692 0 0 0 46.545413-47.336684V465.455053z m-1070.544482-46.545412V372.364229c0-135.400604 140.939508-278.201929 232.727061-279.272474a284.439014 284.439014 0 0 1 212.75908 108.916265 34.629787 34.629787 0 0 0 49.431227 0C639.115055 150.808067 698.227729 93.091755 792.714916 93.091755c109.47481 1.303272 232.727061 152.622407 232.727061 279.272474 0 21.131617-0.325818 47.103957 0 46.545412s-0.558545 47.197048 0 46.545412h-186.181649l-26.810158-95.231913-0.651635-0.884363a34.164333 34.164333 0 0 0-27.927248-14.801441h-0.465454a34.210878 34.210878 0 0 0-29.044337 16.151258l-44.497414 89.413737-50.594863-102.399907a105.797722 105.797722 0 0 0-50.594863-51.199954 194.978732 194.978732 0 0 0-50.548318 51.199954L513.442442 558.545878h-46.545412c-3.071997-6.237085-57.809402-100.677727-63.81376-104.122087a37.562148 37.562148 0 0 0-4.095996-2.094544 45.428322 45.428322 0 0 0-4.282178-1.303272 34.024696 34.024696 0 0 0-6.842176-1.21018h-4.654541a2.513452 2.513452 0 0 1-1.163635 0h-2.187635a2.792725 2.792725 0 0 0-1.070544 0.279272 2.83927 2.83927 0 0 1-1.070545 0 3.397815 3.397815 0 0 0-1.11709 0.325818l-1.023999 0.279273-1.11709 0.465454a2.187634 2.187634 0 0 0-0.930908 0.279272L372.363298 451.910338c-0.279272 0-0.60509 0-0.884363 0.279273a5.213086 5.213086 0 0 1-1.11709 0.60509l-0.837817 0.418909c-0.372363 0-0.744727 0.465454-1.11709 0.60509l-0.837818 0.465454-1.070544 0.698181a5.07345 5.07345 0 0 0-0.791272 0.605091 5.213086 5.213086 0 0 0-1.023999 0.744726 3.025452 3.025452 0 0 0-0.744727 0.605091 3.863269 3.863269 0 0 0-0.977453 0.744726 2.047998 2.047998 0 0 1-0.698182 0.558545 5.864722 5.864722 0 0 1-0.930908 0.930909c0 0.279272-0.465454 0.418909-0.698181 0.744726L359.796037 460.800512a4.980359 4.980359 0 0 1-0.651636 0.744727 8.564356 8.564356 0 0 1-0.791272 1.023999l-0.651636 0.884362-0.698181 0.884363a9.309082 9.309082 0 0 0-0.558545 0.884363l-4.421814 6.981812L234.169969 558.545878h-93.090825a309.154628 309.154628 0 0 1-46.545412-139.636237z m0 0" p-id="4767"></path></svg>
