<?xml version="1.0" standalone="no"?><!DOCTYPE svg PUBLIC "-//W3C//DTD SVG 1.1//EN" "http://www.w3.org/Graphics/SVG/1.1/DTD/svg11.dtd"><svg t="1605844814904" class="icon" viewBox="0 0 1093 1024" version="1.1" xmlns="http://www.w3.org/2000/svg" p-id="5108" xmlns:xlink="http://www.w3.org/1999/xlink" width="17.078125" height="16"><defs><style type="text/css"></style></defs><path d="M1087.541873 448.242538c12.79461 0 0 1.47138 0 0z m0 511.784411c0 52.265983-11.898988 63.973051-63.973051 63.973051H127.946103c-52.074064 0-63.973051-11.707068-63.973052-63.973051v-127.946103a308.478054 308.478054 0 0 0-63.973051 0.447811V768.107795h191.919154a604.161497 604.161497 0 0 1 0 63.973051H127.946103v127.946103h895.622719V512.215589c0-12.79461-0.83165-64.804701 0-63.973051a265.488163 265.488163 0 0 0 63.973051 0v511.784411z m-514.023468-225.632952l-0.767676 0.63973a37.168343 37.168343 0 0 1-3.838383 3.13468 29.55555 29.55555 0 0 1-3.198653 2.367002 31.986526 31.986526 0 0 1-3.582491 1.919192 39.791238 39.791238 0 0 1-4.41414 2.111111 5.373736 5.373736 0 0 0-0.895623 0.383838l-241.94608 85.020185a44.461271 44.461271 0 0 1-56.616151-56.744096l84.892239-242.329919a3.326599 3.326599 0 0 1 0.383839-0.831649 36.720531 36.720531 0 0 1 2.11111-4.542087 30.515145 30.515145 0 0 1 1.855219-3.518518 40.175076 40.175076 0 0 1 2.430976-3.326599 33.713798 33.713798 0 0 1 3.070706-3.710437 3.710437 3.710437 0 0 1 0.639731-0.767676L840.541922 26.46821a88.858568 88.858568 0 0 1 125.643073 0l94.232304 94.360251a89.178434 89.178434 0 0 1 0 125.898965z m-261.201968 47.020192l240.858538-120.14139-120.397283-120.205364z m180.659897-300.673341l120.397282 120.205363 240.858539-240.346754-120.397283-120.14139zM914.430796 60.245981l-120.397283 120.141391 120.397283 120.14139 120.397283-120.14139zM575.757462 64.40423c0-1.791245-37.936019 0-63.973051 0H127.946103v319.865256h63.973051v63.973052H63.973051c-26.101005 0-63.973051-1.023569-63.973051-1.215488V384.269486h63.973051V64.40423c0-52.265983 11.898988-63.973051 63.973052-63.973052h447.811359a604.161497 604.161497 0 0 1 0 63.973052zM63.973051 576.188641h63.973052a568.976319 568.976319 0 0 1 63.973051 0c0 26.164978-1.919192 63.973051 0 63.973051H0V576.188641a298.306338 298.306338 0 0 1 63.973051 0z" p-id="5109"></path></svg>
