<?xml version="1.0" standalone="no"?><!DOCTYPE svg PUBLIC "-//W3C//DTD SVG 1.1//EN" "http://www.w3.org/Graphics/SVG/1.1/DTD/svg11.dtd"><svg t="1606355772019" class="icon" viewBox="0 0 1024 1024" version="1.1" xmlns="http://www.w3.org/2000/svg" p-id="4480" xmlns:xlink="http://www.w3.org/1999/xlink" width="16" height="16"><defs><style type="text/css"></style></defs><path d="M832 896v128H192v-128H64c-23.168 0-64-0.32-64 0V313.6 256h192V64 0h640v256h192v640h-192z m-576-64v128h512c-0.704 0 0-56.192 0-64v-128H256c-0.704 0 0 56.192 0 64z m512-768c0 0.576-19.904 0-64 0H256c0.704 0 0 56.192 0 64v128h512V64z m192 256c0 0.192-56.32 0-64 0H64c0.32 0 0 56.192 0 64v448c0-0.576 56.256 0 64 0h64v-128c0 0.256 40.832 0 64 0h512c23.104 0 64-0.448 64 0v128h128V320zM256 448V384h128c0 12.608 0.576 64 0 64H256z m128-64c-0.832 0 0-12.608 0 0zM128 448c-0.768-0.704 0-56.128 0-64h64c-0.128 0 0 6.912 0 0 0-0.96 1.216 64.512 0 64H128z m576 448H320v-64h384c-0.64 0 0 56.128 0 64z m-384-64c0 1.216-7.744 0 0 0z" p-id="4481"></path></svg>
