<?xml version="1.0" standalone="no"?><!DOCTYPE svg PUBLIC "-//W3C//DTD SVG 1.1//EN" "http://www.w3.org/Graphics/SVG/1.1/DTD/svg11.dtd"><svg t="1606294809875" class="icon" viewBox="0 0 1024 1024" version="1.1" xmlns="http://www.w3.org/2000/svg" p-id="5138" xmlns:xlink="http://www.w3.org/1999/xlink" width="16" height="16"><defs><style type="text/css"></style></defs><path d="M511.488 1024v-78.769231h472.615385v78.769231h-472.615385z m157.538462-236.307692h315.076923v78.76923h-315.076923v-78.76923z m118.153846-157.538462h196.923077v78.769231h-196.923077v-78.769231z m-295.384616 39.384616a373.838769 373.838769 0 0 0-373.16923 354.461538h-78.769231a452.174769 452.174769 0 0 1 283.844923-400.068923A334.296615 334.296615 0 1 1 491.795692 669.538462z m0-590.769231a256 256 0 1 0 256 256 256 256 0 0 0-256-256z" p-id="5139"></path></svg>
