<?xml version="1.0" standalone="no"?><!DOCTYPE svg PUBLIC "-//W3C//DTD SVG 1.1//EN" "http://www.w3.org/Graphics/SVG/1.1/DTD/svg11.dtd"><svg t="1605929236993" class="icon" viewBox="0 0 1026 1024" version="1.1" xmlns="http://www.w3.org/2000/svg" p-id="5538" xmlns:xlink="http://www.w3.org/1999/xlink" width="16.03125" height="16"><defs><style type="text/css"></style></defs><path d="M960.092688 383.456211h-127.818737V319.546843A319.546843 319.546843 0 0 0 193.180266 319.546843v63.909368H65.361529c-47.037295 0-63.909369-7.413487-63.909369 40.710268V958.640528a53.108685 53.108685 0 0 0 63.909369 63.909368h894.731159a53.108685 53.108685 0 0 0 63.909368-63.909368V447.36558a53.108685 53.108685 0 0 0-63.909368-63.909369zM257.089634 319.546843a255.637474 255.637474 0 0 1 511.274948 0v63.909368H257.089634V319.546843z m703.003054 639.093685H65.361529V447.36558h894.731159v511.274948z m-447.36558-126.796187c35.853156 0 63.909369-1.917281 63.909369-1.02255V575.184317c0 0.894731-28.056213 1.02255-63.909369 1.02255s-63.909369 0-63.909368-1.02255v255.637474a487.245026 487.245026 0 0 1 63.909368 1.02255zM512.727108 830.821791" p-id="5539"></path></svg>
