<?xml version="1.0" standalone="no"?><!DOCTYPE svg PUBLIC "-//W3C//DTD SVG 1.1//EN" "http://www.w3.org/Graphics/SVG/1.1/DTD/svg11.dtd"><svg t="1650511723321" class="icon" viewBox="0 0 1024 1024" version="1.1" xmlns="http://www.w3.org/2000/svg" p-id="4700" xmlns:xlink="http://www.w3.org/1999/xlink" width="200" height="200"><defs><style type="text/css"></style></defs><path d="M794.965 890.197H190.123c-13.995 0-24.918-11.264-24.918-24.917V104.107c0-13.995 11.264-24.918 24.918-24.918h604.842c13.995 0 24.918 11.264 24.918 24.918v760.832c0.341 13.994-10.923 25.258-24.918 25.258zM190.123 96.256c-4.438 0-7.851 3.755-7.851 7.85V864.94c0 4.437 3.755 7.85 7.85 7.85h604.843c4.438 0 7.851-3.754 7.851-7.85V104.107c0-4.438-3.755-7.851-7.85-7.851H190.122z" p-id="4701"></path><path d="M794.965 890.197H190.123c-13.995 0-24.918-11.264-24.918-24.917v-61.44c0-13.995 11.264-24.917 24.918-24.917h604.842c13.995 0 24.918 11.264 24.918 24.917v61.44c0.341 13.653-10.923 24.917-24.918 24.917z m-604.842-94.549c-4.438 0-7.851 3.755-7.851 7.85v61.44c0 4.438 3.755 7.851 7.85 7.851h604.843c4.438 0 7.851-3.754 7.851-7.85v-61.44c0-4.438-3.755-7.851-7.85-7.851H190.122z" p-id="4702"></path><path d="M211.968 932.864h-10.581c-10.923 0-19.798-8.875-19.798-19.797v-20.139c0-10.923 8.875-19.797 19.798-19.797h10.581c10.923 0 19.797 8.874 19.797 19.797v20.139c0 10.922-8.874 19.797-19.797 19.797z m-10.581-42.667c-1.366 0-2.731 1.366-2.731 2.731v20.139c0 1.365 1.365 2.73 2.73 2.73h10.582c1.365 0 2.73-1.365 2.73-2.73v-20.139c0-1.365-1.365-2.73-2.73-2.73h-10.581z m587.093 42.667h-10.24c-10.923 0-19.797-8.875-19.797-19.797v-20.139c0-10.923 8.874-19.797 19.797-19.797h10.581c10.923 0 19.798 8.874 19.798 19.797v20.139c-0.342 10.922-9.216 19.797-20.139 19.797z m-10.24-42.667c-1.365 0-2.73 1.366-2.73 2.731v20.139c0 1.365 1.365 2.73 2.73 2.73h10.581c1.366 0 2.731-1.365 2.731-2.73v-20.139c0-1.365-1.365-2.73-2.73-2.73H778.24zM369.664 507.563c-2.048 0-3.755-0.683-5.461-2.048-3.755-3.072-4.096-8.192-1.366-11.947l233.814-288.427c3.072-3.754 8.192-4.096 11.946-1.365 3.755 3.072 4.096 8.192 1.366 11.947L376.149 504.149c-1.365 2.048-3.754 3.414-6.485 3.414z m122.88 80.213c-1.707 0-3.413-0.341-4.779-1.365-3.754-2.731-4.778-7.851-2.048-11.947l110.934-160.768c2.73-3.755 7.85-4.779 11.946-2.048 3.755 2.73 4.779 7.85 2.048 11.947L499.712 584.363c-1.707 2.048-4.437 3.413-7.168 3.413z" p-id="4703"></path></svg>