<?xml version="1.0" standalone="no"?><!DOCTYPE svg PUBLIC "-//W3C//DTD SVG 1.1//EN" "http://www.w3.org/Graphics/SVG/1.1/DTD/svg11.dtd"><svg t="1605844736881" class="icon" viewBox="0 0 1088 1024" version="1.1" xmlns="http://www.w3.org/2000/svg" p-id="4736" xmlns:xlink="http://www.w3.org/1999/xlink" width="17" height="16"><defs><style type="text/css"></style></defs><path d="M128.90048 971.648a47.68 47.68 0 0 0 32 52.352 63.424 63.424 0 0 0 32-52.352V576H128.90048v395.84zM192.90048 48.128z m704.64 400.192h64V54.912a55.552 55.552 0 0 0-32-54.912 47.744 47.744 0 0 0-32 54.912v393.408z m-320-397.184a51.2 51.2 0 0 0-32.512-51.2 59.136 59.136 0 0 0-32.512 51.2v204.288H577.54048V51.2z m-384.832 0a58.24 58.24 0 0 0-32-51.2 63.04 63.04 0 0 0-32 48.128v80.384h64V51.2z m736.768 460.8A160 160 0 1 0 1088.90048 672 160 160 0 0 0 929.34848 512z m0 256A96 96 0 1 1 1024.90048 672a96 96 0 0 1-95.552 96zM160.51648 192a160 160 0 1 0 159.552 160A160 160 0 0 0 160.51648 192z m0 256a96 96 0 1 1 96-96 96 96 0 0 1-96 96z m736.832 518.848a51.2 51.2 0 0 0 32 56.96c29.312-1.792 32-49.152 32-56.96V895.36h-64v71.488z m-352-647.936a160.896 160.896 0 1 0 160.576 160.896 160.768 160.768 0 0 0-160.576-160.896z m0 257.472a96.576 96.576 0 1 1 96-96.576 96.448 96.448 0 0 1-96 96.576z m32.512 128H512.83648v259.712a57.6 57.6 0 0 0 32.512 59.648 53.312 53.312 0 0 0 32.512-59.648V704.64z m0 0" p-id="4737"></path></svg>
