<?xml version="1.0" standalone="no"?><!DOCTYPE svg PUBLIC "-//W3C//DTD SVG 1.1//EN" "http://www.w3.org/Graphics/SVG/1.1/DTD/svg11.dtd"><svg t="1605943156093" class="icon" viewBox="0 0 1024 1024" version="1.1" xmlns="http://www.w3.org/2000/svg" p-id="5910" xmlns:xlink="http://www.w3.org/1999/xlink" width="16" height="16"><defs><style type="text/css"></style></defs><path d="M689.467077 1024a293.415385 293.415385 0 0 1-200.113231-78.769231H118.153846c-40.093538-0.118154-78.651077-27.175385-78.769231-67.505231V146.274462C39.502769 105.944615 78.060308 78.887385 118.153846 78.769231h118.153846V0h78.769231v78.769231h315.076923V0h78.769231v78.769231h118.153846c40.093538 0.118154 78.651077 38.439385 78.769231 78.769231v380.494769c48.088615 51.357538 78.769231 117.681231 78.769231 190.306461C984.615385 891.628308 852.48 1024 689.467077 1024zM827.076923 472.615385V157.538462h-118.153846v39.384615h-78.769231V157.538462H315.076923v39.384615H236.307692V157.538462H118.153846v708.923076h310.429539a295.187692 295.187692 0 0 1 245.720615-432.994461c63.133538 1.024 124.888615 22.370462 176.64 57.777231A142.060308 142.060308 0 0 0 827.076923 472.615385z m25.206154 350.208l-128.196923-127.921231a108.701538 108.701538 0 0 0-26.190769-111.734154 109.252923 109.252923 0 0 0-122.919385-21.779692c-0.236308 0.039385 41.275077 15.517538 55.177846 29.380923 15.084308 15.044923 15.084308 63.724308 0 78.769231-15.084308 15.044923-63.684923 15.044923-78.769231 0-14.217846-12.996923-23.473231-48.009846-29.459692-54.705231a108.425846 108.425846 0 0 0 21.543385 122.407384c30.326154 30.247385 73.964308 38.872615 111.970461 26.151385l128.236308 127.921231c18.944 18.904615 49.664 18.904615 68.608 0a48.364308 48.364308 0 0 0 0-68.489846zM196.923077 315.076923h433.230769v78.769231H196.923077V315.076923z m157.538461 236.307692H196.923077v-78.76923h157.538461v78.76923z m335.005539-118.665846c-5.12 0-10.121846 0.512-15.163077 0.748308-1.575385-0.039385-3.190154-0.236308-4.765538-0.236308l19.928615-0.512z" p-id="5911"></path></svg>
