<?xml version="1.0" standalone="no"?><!DOCTYPE svg PUBLIC "-//W3C//DTD SVG 1.1//EN" "http://www.w3.org/Graphics/SVG/1.1/DTD/svg11.dtd"><svg t="1608112928900" class="icon" viewBox="0 0 1024 1024" version="1.1" xmlns="http://www.w3.org/2000/svg" p-id="9630" width="16" height="16" xmlns:xlink="http://www.w3.org/1999/xlink"><defs><style type="text/css"></style></defs><path d="M959.872427 831.988402H511.953613c0.255954 0 0-43.768067 0-63.988402 0-0.255954 43.25616 0 63.988402 0h447.918814v63.988402c0-2.81549-43.320148 0-63.988402 0z m63.988402-191.965206H575.942015c-20.732242 0-63.988402-2.81549-63.988402 0 0 20.220335-0.767861-63.988402 0-63.988402h447.918814c20.668254 0 63.988402-0.255954 63.988402 0v63.988402z m0-191.965207h-255.953608c-20.732242 0-63.988402-0.767861-63.988402 0 0 20.220335 2.239594-63.988402 0-63.988402h255.953608c20.668254 0 63.988402 0.767861 63.988402 0v63.988402z m-63.988402-191.965206h-319.94201c1.279768 0 0-84.208737 0-63.988402 0 0.767861 43.25616 0 63.988402 0h319.94201v63.988402c0 0.191965-43.320148 0-63.988402 0zM575.942015 384.069587c-1.919652-1.919652-0.319942-1.59971 0 0L319.988406 128.115979v895.837629H256.000004V128.115979L64.034798 320.081185c-14.717332 14.39739-63.988402 64.564298-63.988402 63.988402V256.092783L270.97329 10.441308a37.62518 37.62518 0 0 1 28.538828-10.366122 37.753157 37.753157 0 0 1 28.538827 10.366122L575.942015 256.092783c-1.343756-1.59971 0.575896 128.5527 0 127.976804z m0 575.895619h383.930412c20.668254 0 63.988402-0.191965 63.988402 0v63.988402H511.953613c0.255954 0 0-43.768067 0-63.988402 0-0.191965 43.25616 0 63.988402 0z" fill="#535353" p-id="9631"></path></svg>