<?xml version="1.0" standalone="no"?><!DOCTYPE svg PUBLIC "-//W3C//DTD SVG 1.1//EN" "http://www.w3.org/Graphics/SVG/1.1/DTD/svg11.dtd"><svg t="1605943216221" class="icon" viewBox="0 0 1117 1024" version="1.1" xmlns="http://www.w3.org/2000/svg" p-id="6096" xmlns:xlink="http://www.w3.org/1999/xlink" width="17.453125" height="16"><defs><style type="text/css"></style></defs><path d="M965.818182 1024H151.272727C67.723636 1024 0 959.674182 0 880.267636V143.732364C0 64.325818 67.723636 0 151.272727 0h814.545455C1049.367273 0 1117.090909 64.325818 1117.090909 143.732364v736.535272C1117.090909 959.674182 1049.367273 1024 965.818182 1024zM1024 186.181818c0-47.616-43.008-93.090909-93.090909-93.090909H186.181818c-50.082909 0-93.090909 45.474909-93.090909 93.090909v651.636364c0 47.616 43.008 93.090909 93.090909 93.090909h744.727273c50.082909 0 93.090909-45.474909 93.090909-93.090909V186.181818z m-149.504 482.117818a118.318545 118.318545 0 0 1-49.617455 28.392728c-24.203636 6.469818-60.509091 1.489455-80.151272 1.489454h-139.636364V325.818182h139.636364c32.256 0 72.797091 28.206545 92.672 37.003636 19.874909 8.750545 36.305455 21.317818 49.291636 37.701818 12.939636 16.384 22.388364 35.421091 28.206546 57.157819 5.818182 21.783273 8.750545 44.776727 8.750545 69.12 0 38.120727-4.328727 67.723636-12.986182 88.715636a147.316364 147.316364 0 0 1-36.165818 52.782545z m-80.058182-216.901818C782.103273 437.434182 773.259636 418.909091 744.727273 418.909091h-46.545455v186.181818h46.545455c23.04 0 36.817455 5.12 46.545454 0 9.728-5.12 7.866182-1.396364 13.405091-14.149818 5.492364-12.753455 8.238545-33.373091 8.238546-61.952 0-37.794909-6.144-63.674182-18.478546-77.591273zM418.909091 325.818182h93.090909v372.363636H418.909091V325.818182z m-232.727273 372.363636h139.636364v93.090909H186.181818v-93.090909z m0-232.727273h139.636364v93.09091H186.181818v-93.09091z m0-232.727272h139.636364v93.090909H186.181818V232.727273z" p-id="6097"></path></svg>
