<?xml version="1.0" standalone="no"?><!DOCTYPE svg PUBLIC "-//W3C//DTD SVG 1.1//EN" "http://www.w3.org/Graphics/SVG/1.1/DTD/svg11.dtd"><svg t="1605755714495" class="icon" viewBox="0 0 1170 1024" version="1.1" xmlns="http://www.w3.org/2000/svg" p-id="14689" xmlns:xlink="http://www.w3.org/1999/xlink" width="18.28125" height="16"><defs><style type="text/css"></style></defs><path d="M877.72416 512V365.714286h292.571429v146.285714h-292.571429z m-73.142857-438.857143h365.714286v146.285714h-365.714286V73.142857z m-57.417143 602.697143c99.328 42.569143 68.169143 10.752 149.065143 52.297143C1024.009874 793.746286 1024.009874 974.336 1024.009874 974.336v0.073143a48.786286 48.786286 0 0 1-48.054857 49.590857H47.991589A48.786286 48.786286 0 0 1 0.009874 974.409143v-0.073143h-0.073143s0-180.589714 127.853715-246.198857c80.896-41.545143 49.737143-7.826286 148.992-50.322286 99.328-42.496 122.806857-57.270857 122.806857-57.270857l0.950857-97.865143s-37.156571-29.330286-48.713143-121.417143c-23.332571 6.948571-31.012571-28.16-32.329143-50.541714-1.243429-21.650286-13.458286-89.088 14.921143-83.017143-5.851429-45.056-10.020571-85.723429-7.972571-107.300571C333.541303 84.845714 404.12416 5.851429 512.741303 0.073143 640.521874 5.851429 691.136731 84.772571 698.231589 160.402286c2.121143 21.504-2.486857 62.171429-8.265143 107.154285 28.379429-5.997714 16.018286 61.44 14.701714 83.017143-1.316571 22.381714-9.142857 57.417143-32.329143 50.468572-11.629714 92.086857-48.786286 121.197714-48.786286 121.197714l0.804572 97.353143s23.552 13.824 122.806857 56.246857z" p-id="14690"></path></svg>
