<?xml version="1.0" standalone="no"?><!DOCTYPE svg PUBLIC "-//W3C//DTD SVG 1.1//EN" "http://www.w3.org/Graphics/SVG/1.1/DTD/svg11.dtd"><svg t="1650511429524" class="icon" viewBox="0 0 1024 1024" version="1.1" xmlns="http://www.w3.org/2000/svg" p-id="3656" xmlns:xlink="http://www.w3.org/1999/xlink" width="200" height="200"><defs><style type="text/css"></style></defs><path d="M416 352c-38.4 0-64 25.6-64 64v192c0 38.4 25.6 64 64 64h192c38.4 0 64-25.6 64-64v-192c0-38.4-25.6-64-64-64h-192z m192 256h-192v-192h192v192zM928 704h-192c-19.2 0-32 12.8-32 32s12.8 32 32 32h140.8c-83.2 121.6-224 192-364.8 192s-275.2-64-358.4-179.2c-12.8-12.8-32-19.2-44.8-6.4-12.8 12.8-19.2 32-6.4 44.8C198.4 947.2 352 1024 512 1024c147.2 0 288-64 384-172.8v76.8c0 19.2 12.8 32 32 32s32-12.8 32-32v-192c0-19.2-12.8-32-32-32zM320 288c0-19.2-12.8-32-32-32H147.2C230.4 134.4 364.8 64 512 64c140.8 0 275.2 70.4 358.4 179.2 12.8 12.8 32 19.2 44.8 6.4 12.8-12.8 19.2-32 6.4-44.8C825.6 76.8 672 0 512 0 364.8 0 224 64 128 172.8V96C128 76.8 115.2 64 96 64s-32 12.8-32 32v192c0 19.2 12.8 32 32 32h192c19.2 0 32-12.8 32-32z" p-id="3657"></path></svg>