<?xml version="1.0" standalone="no"?><!DOCTYPE svg PUBLIC "-//W3C//DTD SVG 1.1//EN" "http://www.w3.org/Graphics/SVG/1.1/DTD/svg11.dtd"><svg class="icon" width="200px" height="200.00px" viewBox="0 0 1024 1024" version="1.1" xmlns="http://www.w3.org/2000/svg"><path d="M917.418667 896h-234.666667a42.666667 42.666667 0 0 1-42.666667-42.666667V384a42.666667 42.666667 0 0 1 80.832-19.093333l234.666667 469.333333A42.666667 42.666667 0 0 1 917.418667 896z m-192-85.333333h122.965333l-122.965333-245.952z" fill="#B3C0CE" opacity=".3" /><path d="M577.088 582.357333a42.666667 42.666667 0 0 0-41.514667-1.856l-469.333333 234.666667A42.666667 42.666667 0 0 0 85.333333 896h469.333334a42.666667 42.666667 0 0 0 42.666666-42.666667V618.666667a42.666667 42.666667 0 0 0-20.245333-36.309334zM512 810.624H266.069333L512 687.658667z m360.789333-494.762667l-72.810666 44.522667a333.525333 333.525333 0 0 0-273.066667-147.2c-120.981333 0-212.906667 68.629333-269.824 128h109.930667v85.333333h-213.333334a42.666667 42.666667 0 0 1-42.666666-42.666666v-213.333334h85.333333v110.101334c68.266667-71.189333 179.456-152.768 330.666667-152.768a419.968 419.968 0 0 1 345.770666 188.053333z" fill="#B3C0CE" /></svg>