<?xml version="1.0" standalone="no"?><!DOCTYPE svg PUBLIC "-//W3C//DTD SVG 1.1//EN" "http://www.w3.org/Graphics/SVG/1.1/DTD/svg11.dtd"><svg t="1650511244901" class="icon" viewBox="0 0 1024 1024" version="1.1" xmlns="http://www.w3.org/2000/svg" p-id="2800" xmlns:xlink="http://www.w3.org/1999/xlink" width="200" height="200"><defs><style type="text/css"></style></defs><path d="M878.08 731.274667a32 32 0 0 1-54.88-32.938667A360.789333 360.789333 0 0 0 874.666667 512c0-200.298667-162.368-362.666667-362.666667-362.666667S149.333333 311.701333 149.333333 512s162.368 362.666667 362.666667 362.666667a360.789333 360.789333 0 0 0 186.314667-51.445334 32 32 0 0 1 32.928 54.88A424.778667 424.778667 0 0 1 512 938.666667C276.362667 938.666667 85.333333 747.637333 85.333333 512S276.362667 85.333333 512 85.333333s426.666667 191.029333 426.666667 426.666667c0 78.293333-21.152 153.568-60.586667 219.274667z m-548.704-81.898667L480 498.741333V320a32 32 0 0 1 64 0v192a32 32 0 0 1-9.376 22.624l-160 160a32 32 0 1 1-45.248-45.248z" p-id="2801"></path></svg>