<?xml version="1.0" standalone="no"?><!DOCTYPE svg PUBLIC "-//W3C//DTD SVG 1.1//EN" "http://www.w3.org/Graphics/SVG/1.1/DTD/svg11.dtd"><svg t="1650589926776" class="icon" viewBox="0 0 1024 1024" version="1.1" xmlns="http://www.w3.org/2000/svg" p-id="25020" xmlns:xlink="http://www.w3.org/1999/xlink" width="200" height="200"><defs><style type="text/css"></style></defs><path d="M230.115155 894.027997a12.981842 12.981842 0 0 1-9.200633-3.812949l-89.579727-89.592014a13.010511 13.010511 0 0 1-0.699314-17.651783c231.009007-270.78388 207.943942-470.542883 207.688995-472.526149a13.012559 13.012559 0 0 1 8.158318-13.813237L645.251508 179.653991a13.088326 13.088326 0 0 1 13.941222 2.923192L838.961396 362.345849a13.009487 13.009487 0 0 1 2.923193 13.941223L724.931288 675.079335c-2.172685 5.540243-7.612587 8.869919-13.788664 8.171629-2.007839-0.356312-202.707793-22.557218-472.577343 207.663398a13.001296 13.001296 0 0 1-8.450126 3.113635z m-71.915657-103.342794l72.652855 72.665142C474.162318 659.53778 658.951093 654.276033 704.217064 656.602301l110.319548-281.878702-167.721631-167.722655L364.960852 317.346089c2.249476 45.075528-2.961076 230.016862-206.761354 473.339114z" p-id="25021"></path><path d="M185.319148 849.23199a12.967508 12.967508 0 0 1-9.200633-3.812949c-5.083591-5.083591-5.083591-13.317676 0-18.401267l336.091381-336.104692c5.083591-5.083591 13.317676-5.083591 18.401268 0s5.083591 13.317676 0 18.401267L194.519782 845.420065a12.970579 12.970579 0 0 1-9.200634 3.811925z" p-id="25022"></path><path d="M548.911066 524.476043c-13.293103 0-26.572896-5.044683-36.688883-15.148384-20.206377-20.218664-20.206377-53.132481-0.025597-73.364455 20.23095-20.206377 53.158078-20.23095 73.389028-0.025597 9.810869 9.810869 15.211864 22.836738 15.211865 36.701169 0 13.852145-5.400995 26.878014-15.198554 36.675573-10.114963 10.1037-23.408066 15.161694-36.687859 15.161694z m0-77.671941a25.885869 25.885869 0 0 0-18.312189 7.561393c-10.039196 10.064793-10.052506 26.483818 0.012287 36.548611 10.077079 10.052506 26.483818 10.064793 36.586494 0 10.077079-10.077079 10.077079-26.483818 0-36.560898-5.031372-5.03342-11.665126-7.549107-18.286592-7.549106zM881.127042 342.495784a12.970579 12.970579 0 0 1-9.200634-3.811925L681.558481 148.328219c-5.083591-5.083591-5.083591-13.317676 0-18.401267s13.317676-5.083591 18.401268 0l190.367926 190.354616c5.083591 5.083591 5.083591 13.317676 0 18.401268a12.972627 12.972627 0 0 1-9.200633 3.812948z" p-id="25023"></path></svg>