<?xml version="1.0" standalone="no"?><!DOCTYPE svg PUBLIC "-//W3C//DTD SVG 1.1//EN" "http://www.w3.org/Graphics/SVG/1.1/DTD/svg11.dtd"><svg t="1606294703764" class="icon" viewBox="0 0 1024 1024" version="1.1" xmlns="http://www.w3.org/2000/svg" p-id="4952" xmlns:xlink="http://www.w3.org/1999/xlink" width="16" height="16"><defs><style type="text/css"></style></defs><path d="M777.815085 948.760904v-99.309057a429.820732 429.820732 0 1 0-532.159001 0v99.309057a511.691348 511.691348 0 1 1 532.159001 0zM511.735585 246.229151a265.424536 265.424536 0 0 0-223.629587 122.805924H194.896302a347.581699 347.581699 0 0 1 633.678565 0h-93.209696A265.424536 265.424536 0 0 0 511.735585 246.229151zM245.656084 655.58223v-81.870616a84.490475 84.490475 0 0 1 81.870615-81.870616h368.417771a84.490475 84.490475 0 0 1 81.870615 81.870616v81.870616a84.122058 84.122058 0 0 1-42.204302 70.367794A72.209883 72.209883 0 0 1 736.879778 737.452845v204.676539a84.572346 84.572346 0 0 1-81.870616 81.870616H368.462007a84.572346 84.572346 0 0 1-81.870615-81.870616v-204.676539a72.209883 72.209883 0 0 1 1.268994-11.502821A84.122058 84.122058 0 0 1 245.656084 655.58223z m450.288386-81.870616H327.526699v81.870616h368.417771v-81.870616z m-327.482463 368.41777h286.547155v-204.676539H368.462007v204.676539z" p-id="4953"></path></svg>
